FFmpeg version SVN-r25716, Copyright (c) 2000-2010 the FFmpeg developers  built on Nov 10 2010 12:23:18 with gcc 4.1.2 20080704 (Red Hat 4.1.2-48)  configuration: --enable-libmp3lame --enable-shared --disable-mmx --arch=x86_64  libavutil     50.33. 0 / 50.33. 0  libavcore      0.12. 1 /  0.12. 1  libavcodec    52.94. 4 / 52.94. 4  libavformat   52.84. 0 / 52.84. 0  libavdevice   52. 2. 2 / 52. 2. 2  libavfilter    1.59. 0 /  1.59. 0  libswscale     0.12. 0 /  0.12. 0Input #0, avi, from '/RAID10/data/converted_video_files/47378.avi':  Duration: 00:00:04.70, start: 0.000000, bitrate: 31542 kb/s    Stream #0.0: Video: msvideo1, rgb555le, 1024x1024, 30 tbr, 30 tbn, 30 tbc[buffer @ 0xc78c380] w:1024 h:1024 pixfmt:rgb555le[ffsink @ 0xc78b700] auto-inserting filter 'auto-inserted scaler 0' between the filter 'src' and the filter 'out'[scale @ 0xc78b9f0] w:1024 h:1024 fmt:rgb555le -> w:1024 h:1024 fmt:yuv420p flags:0x4Output #0, flv, to '/RAID10/data/converted_video_files/47378.flv':  Metadata:    encoder         : Lavf52.84.0    Stream #0.0: Video: flv, yuv420p, 1024x1024, q=2-31, 600 kb/s, 1k tbn, 24 tbcStream mapping:  Stream #0.0 -> #0.0Press [q] to stop encodingframe=    6 fps=  0 q=6.8 size=     716kB time=0.25 bitrate=23470.8kbits/s dup=0 drop=1    frame=   13 fps= 11 q=21.7 size=     813kB time=0.54 bitrate=12295.5kbits/s dup=0 drop=3    frame=   23 fps= 14 q=31.0 size=     832kB time=0.96 bitrate=7117.4kbits/s dup=0 drop=5    frame=   32 fps= 13 q=31.0 size=     887kB time=1.33 bitrate=5451.9kbits/s dup=0 drop=8    frame=   35 fps= 13 q=31.0 size=     893kB time=1.46 bitrate=5017.3kbits/s dup=0 drop=8    frame=   45 fps= 14 q=31.0 size=     940kB time=1.88 bitrate=4105.4kbits/s dup=0 drop=11    frame=   55 fps= 15 q=31.0 size=     985kB time=2.29 bitrate=3522.0kbits/s dup=0 drop=13    frame=   64 fps= 15 q=31.0 size=    1034kB time=2.67 bitrate=3177.1kbits/s dup=0 drop=15    frame=   71 fps= 15 q=31.0 size=    1055kB time=2.96 bitrate=2920.6kbits/s dup=0 drop=18    frame=   81 fps= 15 q=31.0 size=    1113kB time=3.38 bitrate=2701.5kbits/s dup=0 drop=20    frame=   91 fps= 16 q=31.0 size=    1167kB time=3.79 bitrate=2521.8kbits/s dup=0 drop=22    frame=  100 fps= 16 q=31.0 size=    1247kB time=4.17 bitrate=2451.2kbits/s dup=0 drop=25    frame=  110 fps= 16 q=31.0 size=    1310kB time=4.58 bitrate=2341.3kbits/s dup=0 drop=27    frame=  113 fps= 15 q=31.0 Lsize=    1321kB time=4.71 bitrate=2298.1kbits/s dup=0 drop=28    video:1319kB audio:0kB global headers:0kB muxing overhead 0.149433%